<svg viewBox="0 0 32 32" xmlns="http://www.w3.org/2000/svg" xmlns:xlink="http://www.w3.org/1999/xlink"><style>:root&gt;svg{display:none}:root&gt;svg:target{display:block}</style><svg viewBox="-5 -4.5 24 24" preserveAspectRatio="xMinYMin" class="aicon__icon" id="arrow-up" xmlns="http://www.w3.org/2000/svg"><path d="M6 4.071l-3.95 3.95A1 1 0 01.636 6.607L6.293.95a.997.997 0 011.414 0l5.657 5.657A1 1 0 0111.95 8.02L8 4.07v9.586a1 1 0 11-2 0V4.07z"/></svg><svg viewBox="-2 -2 24 24" preserveAspectRatio="xMinYMin" class="bicon__icon" id="brightness-up" xmlns="http://www.w3.org/2000/svg"><path d="M10 12a2 2 0 100-4 2 2 0 000 4zm0 2a4 4 0 110-8 4 4 0 010 8zm6-5h3a1 1 0 010 2h-3a1 1 0 010-2zm-6 6a1 1 0 011 1v3a1 1 0 01-2 0v-3a1 1 0 011-1zm0-15a1 1 0 011 1v3a1 1 0 01-2 0V1a1 1 0 011-1zM1 9h3a1 1 0 110 2H1a1 1 0 010-2zm13.95 4.536l2.121 2.12a1 1 0 01-1.414 1.415l-2.121-2.121a1 1 0 011.414-1.414zm-8.486 0a1 1 0 010 1.414l-2.12 2.121a1 1 0 11-1.415-1.414l2.121-2.121a1 1 0 011.414 0zM17.071 2.929a1 1 0 010 1.414L14.95 6.464a1 1 0 01-1.414-1.414l2.12-2.121a1 1 0 011.415 0zm-12.728 0L6.464 5.05A1 1 0 115.05 6.464l-2.12-2.12a1 1 0 011.414-1.415z"/></svg><svg viewBox="-5 -7 24 24" preserveAspectRatio="xMinYMin" class="cicon__icon" id="check" xmlns="http://www.w3.org/2000/svg"><path d="M5.486 9.73a.997.997 0 01-.707-.292L.537 5.195A1 1 0 111.95 3.78l3.535 3.535L11.85.952a1 1 0 011.415 1.414L6.193 9.438a.997.997 0 01-.707.292z"/></svg><svg viewBox="-4 -2 24 24" preserveAspectRatio="xMinYMin" class="dicon__icon" id="flame" xmlns="http://www.w3.org/2000/svg"><path d="M5.652 5.594c-.161.194-.303.368-.424.522-.247.315-.48.623-.7.922C2.813 9.383 2 11.204 2 12.381 2 15.461 4.665 18 8 18s6-2.538 6-5.619c0-1.888-1.97-5.13-5.972-9.453-1.192 1.307-1.988 2.2-2.376 2.666zM8 20c-4.418 0-8-3.411-8-7.619 0-1.693.971-3.867 2.914-6.523a28.38 28.38 0 011.202-1.545C4.673 3.645 5.968 2.207 8 0c5.333 5.449 8 9.576 8 12.381C16 16.589 12.418 20 8 20zm0-3c-2.21 0-4-1.706-4-3.81C4 11.788 5.333 9.724 8 7c2.667 2.724 4 4.788 4 6.19C12 15.294 10.21 17 8 17zm-2-3.81c0 .977.874 1.81 2 1.81s2-.833 2-1.81c0-.537-.654-1.675-2-3.24-1.346 1.565-2 2.703-2 3.24z"/></svg><svg viewBox="-3.5 -1 24 24" preserveAspectRatio="xMinYMin" class="eicon__icon" id="leaf" xmlns="http://www.w3.org/2000/svg"><path d="M3.572 7.572a5 5 0 108.29 5.592c1.005-1.489 1.738-4.816 2.085-9.85C8.004 4.7 4.484 6.221 3.572 7.571zm.231 8.6a7 7 0 01-1.889-9.718C3.356 4.317 8.08 2.433 16.084.801c-.268 6.851-1.122 11.345-2.563 13.482a7 7 0 01-9.718 1.889z"/><path d="M2.066 20.07a1 1 0 11-2 0c0-3.465 1.7-6.711 4.55-8.685l.507-.352a1 1 0 011.139 1.644l-.507.352a8.567 8.567 0 00-3.689 7.042z"/></svg><svg viewBox="-2 -3 24 24" preserveAspectRatio="xMinYMin" class="ficon__icon" id="mountain" xmlns="http://www.w3.org/2000/svg"><path d="M14.846 9.334l-3.985-6.762a1 1 0 00-1.723 0L7.11 6.015c.202 1.979.943 2.783 2.387 2.783 2.005 0 3.816.176 5.35.536zm1.555 2.637c-1.547-.767-3.977-1.173-6.905-1.173-1.819 0-3.11-.832-3.813-2.364l-3.57 6.058A1 1 0 002.975 16h14.05a1 1 0 00.861-1.508l-1.485-2.52zM12.584 1.556l7.025 11.92A3 3 0 0117.025 18H2.975A3 3 0 01.39 13.477l7.025-11.92a3 3 0 015.17 0z"/></svg><svg viewBox="-7 -2 24 24" preserveAspectRatio="xMinYMin" class="gicon__icon" id="music" xmlns="http://www.w3.org/2000/svg"><path d="M7.954 12.304V1a1 1 0 011-1h.028a1 1 0 011 1v14.065c.197 1.969-1.42 3.99-3.874 4.693-2.69.772-5.368-.333-5.98-2.468-.612-2.135 1.073-4.491 3.764-5.263 1.47-.421 2.935-.283 4.062.277zm-2.4 5.521c1.698-.487 2.645-1.81 2.37-2.77-.276-.961-1.78-1.582-3.478-1.095-1.698.487-2.645 1.81-2.37 2.771.276.96 1.78 1.581 3.478 1.094z"/></svg><svg viewBox="-2.5 -2.5 24 24" preserveAspectRatio="xMinYMin" class="hicon__icon" id="search" xmlns="http://www.w3.org/2000/svg"><path d="M8 14A6 6 0 108 2a6 6 0 000 12zm6.32-1.094l3.58 3.58a1 1 0 11-1.415 1.413l-3.58-3.58a8 8 0 111.414-1.414z"/></svg><svg viewBox="-2 -2 24 24" preserveAspectRatio="xMinYMin" class="iicon__icon" id="smiley" xmlns="http://www.w3.org/2000/svg"><path d="M10 20C4.477 20 0 15.523 0 10S4.477 0 10 0s10 4.477 10 10-4.477 10-10 10zm0-2a8 8 0 100-16 8 8 0 000 16zm-3.92-4.606a1 1 0 111.84-.788 2.264 2.264 0 004.16 0 1 1 0 111.84.788 4.264 4.264 0 01-7.84 0zM7 6a1 1 0 011 1v2a1 1 0 11-2 0V7a1 1 0 011-1zm6 0a1 1 0 011 1v2a1 1 0 01-2 0V7a1 1 0 011-1z"/></svg><svg viewBox="-2 -1.5 24 24" preserveAspectRatio="xMinYMin" class="jicon__icon" id="smiley-f" xmlns="http://www.w3.org/2000/svg"><path d="M10 20.858c-5.523 0-10-4.477-10-10s4.477-10 10-10 10 4.477 10 10-4.477 10-10 10zm-3.92-6.606a4.264 4.264 0 007.84 0 1 1 0 10-1.84-.788 2.264 2.264 0 01-4.16 0 1 1 0 10-1.84.788zM7 6.858a1 1 0 00-1 1v2a1 1 0 102 0v-2a1 1 0 00-1-1zm6 0a1 1 0 00-1 1v2a1 1 0 002 0v-2a1 1 0 00-1-1z"/></svg><svg viewBox="-2 -2.5 24 24" preserveAspectRatio="xMinYMin" class="kicon__icon" id="star" xmlns="http://www.w3.org/2000/svg"><path d="M10 13.554l3.517 1.85-.672-3.917 2.846-2.774-3.932-.571L10 4.579 8.241 8.142l-3.932.571 2.846 2.774-.672 3.916L10 13.554zm0 2.26L3.827 19.06l1.179-6.875L.01 7.317l6.902-1.003L10 .06l3.087 6.254 6.902 1.003-4.995 4.868 1.18 6.875L10 15.814z"/></svg></svg>